{"title":"Sitaron Ka Safar with the Gentle Giant DARA PAAJEE SINGH","uid":8259915,"size":164250264,"categoryP":"video","categoryS":"tv_shows","magnet":"?xt=urn:btih:ed194711e1a52a2996f5dac43fc6c483de60ca80&amp;dn=Sitaron+Ka+Safar+with+the+Gentle+Giant+DARA+PAAJEE+SINGH&amp;tr=udp%3A%2F%2Ftracker.openbittorrent.com%3A80&amp;tr=udp%3A%2F%2Fopen.demonii.com%3A1337&amp;tr=udp%3A%2F%2Ftracker.coppersurfer.tk%3A6969&amp;tr=udp%3A%2F%2Fexodus.desync.com%3A6969","seeders":1,"leechers":0,"uploader":"swarint","files":1,"time":1363358910,"description":" &lt;a href=&quot;http://imageshack.us/scaled/medium/526/vlcsnap2013031216h40m42.png&quot; rel=&quot;nofollow&quot; target=&quot;_NEW&quot;&gt;http://imageshack.us/scaled/medium/526/vlcsnap2013031216h40m42.png&lt;/a&gt; &lt;a href=&quot;\nhttp://imageshack.us/scaled/medium/69/vlcsnap2013031216h39m41.png&quot; rel=&quot;nofollow&quot; target=&quot;_NEW&quot;&gt;\nhttp://imageshack.us/scaled/medium/69/vlcsnap2013031216h39m41.png&lt;/a&gt; &lt;a href=&quot;\nhttp://imageshack.us/scaled/medium/839/vlcsnap2013031216h39m36.png&quot; rel=&quot;nofollow&quot; target=&quot;_NEW&quot;&gt;\nhttp://imageshack.us/scaled/medium/839/vlcsnap2013031216h39m36.png&lt;/a&gt; &lt;a href=&quot;\nhttp://imageshack.us/scaled/medium/833/vlcsnap2013031216h39m16.png&quot; rel=&quot;nofollow&quot; target=&quot;_NEW&quot;&gt;\nhttp://imageshack.us/scaled/medium/833/vlcsnap2013031216h39m16.png&lt;/a&gt; &lt;a href=&quot;\nhttp://imageshack.us/scaled/medium/37/vlcsnap2013031216h38m54.png&quot; rel=&quot;nofollow&quot; target=&quot;_NEW&quot;&gt;\nhttp://imageshack.us/scaled/medium/37/vlcsnap2013031216h38m54.png&lt;/a&gt; &lt;a href=&quot;\nhttp://imageshack.us/scaled/medium/707/vlcsnap2013031216h38m38.png&quot; rel=&quot;nofollow&quot; target=&quot;_NEW&quot;&gt;\nhttp://imageshack.us/scaled/medium/707/vlcsnap2013031216h38m38.png&lt;/a&gt; &lt;a href=&quot;\nhttp://imageshack.us/scaled/medium/811/vlcsnap2013031216h38m07.png&quot; rel=&quot;nofollow&quot; target=&quot;_NEW&quot;&gt;\nhttp://imageshack.us/scaled/medium/811/vlcsnap2013031216h38m07.png&lt;/a&gt; &lt;a href=&quot;\nhttp://imageshack.us/scaled/medium/12/vlcsnap2013031216h39m57.png&quot; rel=&quot;nofollow&quot; target=&quot;_NEW&quot;&gt;\nhttp://imageshack.us/scaled/medium/12/vlcsnap2013031216h39m57.png&lt;/a&gt; &lt;a href=&quot;\nhttp://imageshack.us/scaled/medium/560/chhotibahu1971.jpg&quot; rel=&quot;nofollow&quot; target=&quot;_NEW&quot;&gt;\nhttp://imageshack.us/scaled/medium/560/chhotibahu1971.jpg&lt;/a&gt;\n\nIf yu missed this face to face, one to one super Programme with one and only Dara Paajee ki Zabaani, then pls make sure yu see this.\n\nHe is at his best as always and we his fans will keep on remembering him. Always a low key person.\n\nYu check out yourself and as always apprec any valuable comments  and /or ek button hai jiska naam hai..................\n\nand if any1 can share his\n The Killers 1969,\nChoron Ka Chor (1970)\n  AND King Of Carnival 1963, pls do that. Thx a lot :)\n\nSpecs-\nSitaron Ka Safar ( Dara Singh).avi\nFormat                                   : AVI\nFormat/Info                              : Audio Video Interleave\nFile size                                : 157 MiB\nDuration                                 : 20mn 58s\nOverall bit rate                         : 1 044 Kbps\n\nVideo\n\nFormat                                   : MPEG-4 Visual\nFormat profile                           : Simple@L3\nFormat settings, BVOP                    : No\nFormat settings, QPel                    : No\nFormat settings, GMC                     : No warppoints\nFormat settings, Matrix                  : Default (H.263)\nCodec ID                                 : XVID\n\nDuration                                 : 20mn 58s\nBit rate                                 : 900 Kbps\nWidth                                    : 450 pixels\nHeight                                   : 360 pixels\nDisplay aspect ratio                     : 5:4\nFrame rate                               : 25.000 fps\nColor space                              : YUV\nChroma subsampling                       : 4:2:0\nBit depth                                : 8 bits\nScan type                                : Progressive\nCompression mode                         : Lossy\nBits/(Pixel*Frame)                       : 0.222\nStream size                              : 135 MiB (86%)\nWriting library                          : XviD 1.2.1 (UTC 2008-12-04)\n\nAudio\nID                                       : 1\nFormat                                   : MPEG Audio\nFormat version                           : Version 1\nFormat profile                           : Layer 3\nMode                                     : Joint stereo\nMode extension                           : MS Stereo\nCodec ID                                 : 55\nCodec ID/Hint                            : MP3\nDuration                                 : 20mn 58s\nBit rate mode                            : Constant\nBit rate                                 : 128 Kbps\nChannel(s)                               : 2 channels\nSampling rate                            : 44.1 KHz\nCompression mode                         : Lossy\nStream size                              : 19.2 MiB (12%)\nAlignment                                : Aligned on interleaves\nInterleave, duration                     : 26 ms (0.65 video frame)\nWriting library                          : LAME3.98.2\n\nFolks pls note seeding slow upto 2200 IST, a wee bit btr after that so pls bear and help to seed as much as yu can. Cheers\nEnjoii :)","torrent":{"xt":"urn:btih:ed194711e1a52a2996f5dac43fc6c483de60ca80","amp;dn":"Sitaron+Ka+Safar+with+the+Gentle+Giant+DARA+PAAJEE+SINGH","amp;tr":["udp%3A%2F%2Ftracker.openbittorrent.com%3A80","udp%3A%2F%2Fopen.demonii.com%3A1337","udp%3A%2F%2Ftracker.coppersurfer.tk%3A6969","udp%3A%2F%2Fexodus.desync.com%3A6969"],"infoHash":"ed194711e1a52a2996f5dac43fc6c483de60ca80","infoHashBuffer":{"type":"Buffer","data":[237,25,71,17,225,165,42,41,150,245,218,196,63,198,196,131,222,96,202,128]},"announce":[],"urlList":[]}}